<svg width="70" height="70" viewBox="0 0 70 70" fill="none" xmlns="http://www.w3.org/2000/svg">
<circle cx="35" cy="35" r="35" fill="#F9F9F9"/>
<path d="M45.6654 47V44.3333C45.6654 42.9188 45.1035 41.5623 44.1033 40.5621C43.1031 39.5619 41.7465 39 40.332 39H29.6654C28.2509 39 26.8943 39.5619 25.8941 40.5621C24.8939 41.5623 24.332 42.9188 24.332 44.3333V47" stroke="black" stroke-width="1.4" stroke-linecap="round" stroke-linejoin="round"/>
<path d="M35.0013 33.6667C37.9468 33.6667 40.3346 31.2789 40.3346 28.3333C40.3346 25.3878 37.9468 23 35.0013 23C32.0558 23 29.668 25.3878 29.668 28.3333C29.668 31.2789 32.0558 33.6667 35.0013 33.6667Z" stroke="black" stroke-width="1.4" stroke-linecap="round" stroke-linejoin="round"/>
</svg>
